<svg xmlns="http://www.w3.org/2000/svg" width="354" height="163" viewBox="0 0 354 163">
  <metadata><?xpacket begin="﻿" id="W5M0MpCehiHzreSzNTczkc9d"?>
<x:xmpmeta xmlns:x="adobe:ns:meta/" x:xmptk="Adobe XMP Core 5.6-c142 79.160924, 2017/07/13-01:06:39        ">
   <rdf:RDF xmlns:rdf="http://www.w3.org/1999/02/22-rdf-syntax-ns#">
      <rdf:Description rdf:about=""/>
   </rdf:RDF>
</x:xmpmeta>
                                                                                                    
                                                                                                    
                                                                                                    
                                                                                                    
                                                                                                    
                                                                                                    
                                                                                                    
                                                                                                    
                                                                                                    
                                                                                                    
                                                                                                    
                                                                                                    
                                                                                                    
                                                                                                    
                                                                                                    
                                                                                                    
                                                                                                    
                                                                                                    
                                                                                                    
                                                                                                    
                           
<?xpacket end="w"?></metadata>
<defs>
    <style>
      .cls-1 {
        fill-rule: evenodd;
      }
    </style>
  </defs>
  <g id="Mesa_de_trabajo_1" data-name="Mesa de trabajo 1">
    <path id="Forma_3" data-name="Forma 3" class="cls-1" d="M0.025,0H56.592V162.68c-1.37.5-3.845,0.269-5.657,0.269H0.295C-0.131,161.78.025,159.7,0.025,158.1V0ZM155.179,44.979h-3.232c-0.117-1.359-.858-2.025-1.347-2.963q-0.135-.673-0.269-1.347h-0.27V40.131h-0.269l-1.886-4.579H134.977q-0.27.808-.539,1.616h-0.269v0.808H133.9v0.539H133.63l-0.539,1.616h-0.269v0.808h-0.27v0.539h-0.269v0.539h-0.269l-1.078,2.963H127.7a5.136,5.136,0,0,1,1.077-2.424V42.017h0.27V41.478h0.269V40.67h0.269V40.131h0.27q0.268-.808.539-1.616h0.269V37.707h0.269V37.169h0.27V36.63h0.269l0.539-1.616h0.269V34.206h0.269V33.667h0.27V33.129h0.269q0.27-.808.539-1.616H133.9V30.7h0.27V30.166h0.269l0.539-1.616h0.269V27.742h0.269V27.2h0.27q0.135-.538.269-1.077h0.27q0.133-.539.269-1.077h0.269V24.24h0.27l0.538-1.616h0.27q0.135-.673.269-1.347h0.27l0.538-1.616h0.27V19.123h0.269V18.584h0.269V17.776h0.27a4.1,4.1,0,0,1,.538-1.347h1.617q0.133,0.4.269,0.808h0.269v0.539h0.27v0.539h0.269v0.808H143.6v0.539h0.27q0.268,0.808.539,1.616h0.269v0.539h0.269l0.27,1.347h0.269V23.7h0.269q0.27,0.808.539,1.616h0.269v0.808h0.27v0.539H147.1q0.27,0.808.539,1.616h0.269v0.808h0.27v0.539h0.269v0.539h0.269q0.27,0.808.539,1.616h0.269q0.405,1.212.809,2.424H150.6v0.539h0.269v0.808h0.27v0.539h0.269V36.63h0.269q0.27,0.808.539,1.616h0.269v0.808h0.27v0.539h0.269q0.27,0.808.539,1.616h0.269v0.808h0.27v0.539A5.6,5.6,0,0,1,155.179,44.979Zm78.116,0h-3.233q0.27-.808.539-1.616h0.269V42.825h0.27V42.017h0.269V41.478h0.27V40.939h0.269q0.268-.808.539-1.616h0.269V38.515h0.269V37.977h0.27V37.438h0.269q0.27-.808.539-1.616h0.269q0.4-1.212.808-2.424h0.27V32.859h0.269V32.051h0.269V31.513h0.27V30.974h0.269l0.539-1.616h0.269q0.4-1.212.808-2.424h0.27V26.4h0.269V25.587h0.269V25.048h0.27V24.51h0.269l0.539-1.616H240.3V22.086h0.27V21.547h0.269l0.808-2.424h0.269l0.27-1.077h0.269V17.507h0.269V16.968h0.27V16.7h0.269V16.43h1.347a2.428,2.428,0,0,0,.539.539v0.539h0.269l0.808,2.424h0.27V20.47h0.269v0.808h0.269v0.539h0.27v0.539h0.269q0.27,0.808.539,1.616h0.269v0.808h0.27v0.539h0.269v0.539h0.269q0.27,0.808.539,1.616H250v0.808h0.27v0.539h0.269q0.27,0.808.539,1.616h0.269v0.808h0.27v0.539h0.269v0.539h0.269q0.27,0.808.539,1.616h0.269v0.808h0.27v0.539H253.5q0.27,0.808.539,1.616h0.269v0.808h0.27q0.269,0.808.538,1.616h0.27v0.539h0.269q0.135,0.673.269,1.347h0.27v0.539h0.269l1.347,3.232h-3.232q-2.155-4.713-4.31-9.427h-12.66c-0.29.679-.782,1.317-1.078,1.885v0.539h-0.269q-0.405,1.212-.808,2.424h-0.27v0.539h-0.269v0.808h-0.269v0.539h-0.27v0.539A7.919,7.919,0,0,0,233.3,44.979ZM89.724,16.7h2.963l1.886,2.693,0.808,0.539V20.47l1.078,0.808v0.539L97.8,22.894v0.539l1.078,0.808v0.539l1.347,1.077V26.4l0.808,0.539c0.09,0.269.179,0.539,0.269,0.808a12.322,12.322,0,0,1,1.347,1.347,0.469,0.469,0,0,0,.269-0.269l0.809-.539V27.742l1.077-.808V26.4l1.347-1.077V24.779l1.077-.808V23.432l1.347-1.077V21.816l1.078-.808V20.47L111,19.392V18.854l1.347-1.077V17.238h0.27q0.133-.269.269-0.539h2.694c0.722,1.978.269,6.344,0.269,8.888V44.979H112.62V21.816h-0.27l-1.077,1.616-0.539.269V24.24l-1.077.808v0.539l-1.347,1.077V27.2l-1.078.808V28.55l-1.077.808V29.9l-1.078.808v0.539L104,32.051c-0.643.712-.488,1.317-1.616,1.616V33.4a9.686,9.686,0,0,1-.808-1.077l-0.539-.269V31.513L99.959,30.7V30.166l-1.077-.808V28.819L97.8,28.011V27.473l-1.078-.808V26.126l-1.077-.808L95.38,24.51l-0.539-.269V23.971L94.3,23.7V23.163H94.033a2.93,2.93,0,0,1-.808-1.347H92.956V44.979H89.724V16.7Zm95.624,28.28q-0.135-.4-0.269-0.808h-0.27V43.633H184.54V43.094L184,42.825V42.286l-0.539-.269V41.478l-0.538-.269-0.27-1.077-0.538-.269V39.323l-0.539-.269V38.515l-0.539-.269q-0.135-.539-0.269-1.077H180.5q-0.133-.4-0.269-0.808l-0.539-.269V35.553l-0.808-.539V34.475l-2.155-1.885V32.321c-1.329-.737-4.628-0.3-6.465-0.269V44.979h-3.232V16.968c2-.739,6.575-0.283,9.159-0.269v0.269h1.885l2.424,0.808,0.27,0.539h0.538l0.27,0.539,1.347,1.077V20.47c2.839,4.241.571,8.823-3.233,10.5l0.539,0.808H180.5v0.539l0.808,0.539V33.4l0.809,0.539v0.539l0.538,0.269,0.27,0.808h0.269v0.539l0.539,0.269q0.133,0.539.269,1.077h0.269l0.27,0.808,0.539,0.269v0.539l0.538,0.269v0.539l0.539,0.269V40.67l0.539,0.269v0.539l0.538,0.269v0.539l0.539,0.269,1.347,2.424h-3.771ZM196.661,16.7h2.963l9.159,22.086h0.538a4.187,4.187,0,0,1,.808-1.885V36.091h0.27V35.553h0.269V34.745h0.27q0.133-.539.269-1.077h0.269V32.859h0.27V32.321h0.269V31.513h0.269l0.27-1.077h0.269q0.4-1.347.808-2.693h0.27V27.2h0.269V26.4h0.269V25.856h0.27V25.048h0.269q0.135-.539.269-1.077h0.27V23.163h0.269q0.135-.673.269-1.347h0.27q0.135-.539.269-1.077h0.27V19.931h0.269V19.392H217.4V18.584a4.052,4.052,0,0,0,.808-1.885h3.233q-0.405,1.212-.808,2.424h-0.27v0.808H220.1q-0.135.539-.269,1.077h-0.27q-0.4,1.347-.808,2.693H218.48V24.24h-0.27v0.808h-0.269v0.539h-0.269V26.4H217.4q-0.135.539-.269,1.077h-0.269q-0.405,1.347-.809,2.693h-0.269V30.7h-0.269v0.808h-0.27v0.539h-0.269q-0.135.673-.269,1.347h-0.27v0.808H214.17q-0.135.539-.269,1.077h-0.27v0.808h-0.269V36.63h-0.27v0.808h-0.269q-0.135.539-.269,1.077h-0.27v0.808h-0.269v0.539h-0.269V40.67h-0.27q-0.135.539-.269,1.077h-0.269l-0.27,1.347H210.4V43.9h-0.27a4.1,4.1,0,0,1-.538,1.347h-1.347l-0.808-2.424h-0.27V42.017H206.9q-0.135-.539-0.269-1.077h-0.27q-0.4-1.347-.808-2.693h-0.269V37.707h-0.27V36.9h-0.269V36.361h-0.269V35.553H204.2q-0.133-.539-0.269-1.077h-0.269q-0.4-1.347-.808-2.693h-0.27V31.243h-0.269V30.435h-0.27V29.9h-0.269V29.089H201.51l-0.27-1.077h-0.269V27.2H200.7l-0.27-1.077h-0.269V25.318h-0.269V24.779h-0.27V23.971h-0.269l-0.27-1.077h-0.269V22.086h-0.269V21.547h-0.27V20.739h-0.269V20.2h-0.269l-0.27-1.347H197.2A6.348,6.348,0,0,1,196.661,16.7Zm73,0h2.963V42.286H286.09v2.693H269.659V16.7Zm-99.4,2.693v9.7c2.4,0.038,6.832.271,8.351-.539l0.269-.539h0.539l1.347-1.885q0.133-1.212.269-2.424C179.758,19.271,175.9,19.3,170.263,19.392Zm-29.091,2.424A5.259,5.259,0,0,1,140.1,24.24v0.539h-0.27v0.808h-0.269v0.539h-0.269q-0.27.808-.539,1.616h-0.269V28.55h-0.27q-0.135.539-.269,1.077h-0.27v0.539H137.4V30.7h-0.269v0.808h-0.27v0.539h-0.269q-0.135.4-.269,0.808h10.235V32.59c-0.6-.557-0.2-0.6-0.538-1.347h-0.27V30.7h-0.269V30.166h-0.269V29.627h-0.27q-0.135-.539-0.269-1.077h-0.269Q144,27.338,143.6,26.126h-0.269V25.587h-0.269V24.779h-0.27V24.24a5.8,5.8,0,0,1-1.077-2.424h-0.539Zm97.779,11.043h9.967l-4.849-11.043a0.472,0.472,0,0,0-.269.269c-0.668.619-.2,0.6-0.539,1.347h-0.269v0.539h-0.27V24.51h-0.269v0.539h-0.269v0.539h-0.27V26.4h-0.269v0.539h-0.269q-0.405,1.212-.808,2.424H240.3V29.9h-0.269Q239.491,31.378,238.951,32.859ZM11.608,28.281v5.387h33.4V28.281h-33.4ZM102.922,66.8a15.868,15.868,0,0,1,4.849.808h0.808v0.269h0.808v0.269L111,68.681v0.269l1.078,0.269,0.269,0.539h0.539l1.616,1.885,1.347,1.077V73.26l0.539,0.269v0.539l0.538,0.269v0.539h0.27v0.539h0.269v0.808h0.269v0.539h0.27v1.077h0.269a17.789,17.789,0,0,1,.27,5.925h-0.27v1.347h-0.269v0.808h-0.27v0.808h-0.269v0.539H117.2v0.808l-0.539.269q-0.135.539-.269,1.077l-0.808.539V90.5l-1.078.808-1.347,1.616H112.62l-0.27.539-0.808.269V94H111v0.269l-1.077.269v0.269l-2.424.539v0.269h-1.347v0.269a25.808,25.808,0,0,1-6.465-.269V95.346H98.882V95.076l-1.616-.269V94.538H96.727V94.268H96.188l-0.269-.539-1.077-.269L94.3,92.652H93.764l-0.539-.808-1.347-1.077V90.228L91.07,89.69V89.151l-0.539-.269-0.539-1.616H89.724l-0.539-2.693c-0.325-1-1.011-3.207-.539-4.848h0.269V78.108h0.269V77.3h0.269V76.492h0.269V75.684h0.269V75.145h0.269l0.269-1.077L91.07,73.8V73.26l0.539-.269V72.452l1.886-1.616,0.539-.808h0.539l0.269-.539H95.38l0.269-.539,1.616-.539V68.143H97.8V67.873h0.808V67.6h0.808V67.335h1.347V67.065h2.154V66.8Zm69.227,0.269q6.464,14.273,12.93,28.55h-3.233a6.955,6.955,0,0,0-1.077-2.155V92.922H180.5V92.383H180.23V91.575h-0.269V91.036h-0.27l-0.538-1.616h-0.27V88.612h-0.269a14.1,14.1,0,0,0-1.078-2.424H164.607a5.3,5.3,0,0,1-1.078,2.424v0.539H163.26v0.808h-0.269V90.5h-0.27q-1.077,2.558-2.155,5.117h-3.232q0.27-.808.539-1.616h0.269V93.191h0.269V92.652h0.27q0.268-.808.539-1.616h0.269V90.228h0.269V89.69h0.27V89.151H160.3q0.27-.808.539-1.616H161.1V86.727h0.269V86.188h0.27q0.269-.808.539-1.616h0.269V83.764h0.269V83.225h0.27V82.687h0.269l0.539-1.616h0.269l0.808-2.424h0.27V78.108h0.269V77.3h0.269V76.761h0.27V76.223h0.269l0.539-1.616h0.269V73.8H167.3V73.26h0.27q0.135-.539.269-1.077h0.27q0.133-.539.269-1.077h0.269V70.3h0.27q0.133-.539.269-1.077h0.269q0.4-1.077.808-2.155h1.886Zm-48.486.269h2.963v7.811h-2.963V67.335Zm11.314,0h14.815v2.693H137.94v9.427h10.774v2.693H137.94V95.615h-2.963V67.335Zm61.954,0c5.137-.1,11.278-0.506,14.276,1.616l0.269,0.539,1.078,0.808c0.635,0.9,2,4.191,1.347,6.195h-0.27V77.3h-0.269v0.808a11.392,11.392,0,0,1-4.041,3.5l1.347,1.616h0.27v0.539l0.808,0.539v0.539l0.538,0.269,0.27,0.808h0.269v0.539l0.539,0.269q0.135,0.539.269,1.077h0.27q0.133,0.4.269,0.808l0.539,0.269V89.42h0.269q0.135,0.4.269,0.808l0.539,0.269v0.539l0.539,0.269v0.539l0.539,0.269v0.539l0.538,0.269V93.46l0.539,0.269a5.35,5.35,0,0,1,.808,1.885h-3.5q-0.134-.4-0.269-0.808l-0.539-.269Q214.3,94,214.17,93.46l-0.539-.269V92.652l-0.539-.269V91.844l-0.538-.269-0.27-1.077-0.538-.269V89.69l-0.539-.269V88.882l-0.539-.269q-0.135-.539-0.269-1.077l-0.539-.269V86.727l-0.808-.539V85.65l-0.808-.539V84.572l-2.155-1.885-6.195-.269v13.2h-2.963V67.335Zm32.593,0c4.243-.049,10.839-0.546,13.468,1.077l0.269,0.539H243.8q0.135,0.269.269,0.539l1.078,0.808a9.212,9.212,0,0,0,1.077,1.885l0.27,4.309a8.463,8.463,0,0,1-4.58,5.117l1.347,1.616h0.27v0.539l0.808,0.539v0.539l0.538,0.269,0.27,0.808h0.269v0.539l0.539,0.269v0.539l0.539,0.269q0.133,0.539.269,1.077h0.269l0.27,0.808,0.538,0.269v0.539h0.27c0.09,0.269.179,0.539,0.269,0.808l0.539,0.269v0.539l0.539,0.269v0.539L250,92.922V93.46l0.539,0.269a5.35,5.35,0,0,1,.808,1.885h-3.5q-0.133-.4-0.269-0.808l-0.539-.269Q246.9,94,246.763,93.46l-0.539-.269V92.652l-0.539-.269V91.844l-0.538-.269-0.27-1.077-0.538-.269V89.69L243.8,89.42V88.882l-0.539-.269q-0.135-.539-0.269-1.077l-0.539-.269V86.727l-0.539-.269V85.919l-0.808-.539V84.842l-2.424-2.155-6.195-.269v13.2h-2.963V67.335Zm48.755,0v2.693H265.618v9.965h12.391v2.693H265.618V92.922h13.2v2.424c-1.3.477-3.65,0.269-5.387,0.269H262.655c-0.722-1.978-.269-6.344-0.269-8.888V67.6h0.269V67.335h15.624Zm13.737,0h2.963V92.922h13.738v2.424c-1.3.477-3.65,0.269-5.388,0.269H292.016V67.335Zm31.516,0V92.922H337v2.693H320.569c-0.723-1.978-.27-6.344-0.27-8.888V67.6A10.513,10.513,0,0,1,323.532,67.335Zm-220.61,2.424v0.269h-1.885V70.3l-1.886.269v0.269l-1.616.539v0.269H97l-0.539.808H95.919l-0.808,1.077-0.808.539v0.539l-0.539.269-0.269,1.077-0.539.269v0.808H92.687v0.539H92.417l-0.269,2.693H91.879a5.106,5.106,0,0,0,.269,2.424V84.3h0.269V85.38h0.269L93.225,87h0.269l0.269,1.077,0.808,0.539v0.539l1.078,0.808v0.269h0.539l0.539,0.808h0.539l0.269,0.539h0.539v0.269h0.539v0.269h0.808v0.269h0.808c0.96,0.355,4.27,1.042,5.926.539V92.652h1.077V92.383h0.808V92.114l1.617-.539V91.306H110.2l0.27-.539H111l1.347-1.616,0.808-.539V88.074L113.7,87.8q0.27-.808.539-1.616h0.269V85.65h0.269c0.39-.906.965-4.751,0.539-6.195h-0.269l-0.27-2.155C112.889,72.984,109.076,69.83,102.922,69.759Zm96.972,0.269v9.7h6.195V79.455h1.347V79.185l1.616-.539,0.539-.808h0.269V77.3h0.269l0.27-1.077h0.269V73.529c-0.926-.844-0.638-2.026-2.155-2.424C207.274,69.7,202.641,70,199.894,70.028Zm32.593,0v9.7h6.195V79.455h1.347V79.185l1.616-.539a13,13,0,0,0,1.616-2.424q-0.135-1.751-.269-3.5l-0.539-.269V71.913C240.938,69.781,236.26,69.968,232.487,70.028Zm-56.3,13.467q-0.54-1.481-1.078-2.963h-0.269V79.993h-0.27V79.185H174.3q-0.135-.539-0.269-1.077h-0.27q-0.135-.539-0.269-1.077h-0.269V76.492h-0.27V75.684h-0.269V75.145h-0.27V74.607h-0.269V74.068H171.88V73.529h-0.27q-0.134-.673-0.269-1.347h-0.269v0.539a2.324,2.324,0,0,0-.539,1.077h-0.27v0.539h-0.269v0.808h-0.269v0.539h-0.27q-0.4,1.212-.808,2.424h-0.269q-0.135.539-.269,1.077h-0.27v0.539H167.57v0.539H167.3v0.808h-0.269v0.539h-0.269c-0.335.634-.53,1.282-0.808,1.885H176.19ZM11.608,78.916v5.118h33.4V78.916h-33.4Zm90.776,51.174h0.538l9.967-12.389h2.694c0.722,1.978.269,6.344,0.269,8.888v19.392H112.62V122.818h-0.27v0.269a14.742,14.742,0,0,0-1.077,1.347l-0.539.27v0.538l-1.077.808v0.539l-1.078.808v0.539l-1.077.808v0.538l-1.347,1.078V130.9l-1.078.808v0.539l-1.077.808c-0.578.8-.5,1.32-1.616,1.616V134.4a9.676,9.676,0,0,1-.808-1.078l-0.539-.269v-0.539l-1.078-.808v-0.538l-1.347-1.078v-0.538l-1.078-.808v-0.539l-1.077-.808v-0.539l-1.078-.808v-0.538l-0.539-.27v-0.269L94.3,124.7v-0.539H94.033a2.932,2.932,0,0,1-.808-1.347H92.956v23.163H89.724V117.97a8.334,8.334,0,0,1,2.694-.269l1.347,1.616h0.269l0.269,0.808,0.808,0.538V121.2l1.347,1.077v0.539l1.077,0.808v0.539l1.347,1.077v0.539l1.077,0.808v0.539L100.5,127.4l0.539,0.808h0.269v0.539h0.27A2.949,2.949,0,0,1,102.384,130.09Zm37.98-12.389h2.155q0.27,0.807.539,1.616h0.269v0.808H143.6q0.27,0.807.539,1.616h0.27v0.538h0.269v0.808h0.269v0.539h0.27v0.539h0.269q0.27,0.807.539,1.616h0.269v0.808h0.269v0.539h0.27v0.538H147.1q0.27,0.809.539,1.616h0.269v0.808h0.27v0.539h0.269l0.539,1.616h0.269v0.808h0.269l0.27,1.077h0.269l0.27,1.078H150.6v0.538h0.269v0.808h0.27v0.539h0.269l0.539,1.616h0.269v0.808h0.269v0.539h0.27v0.538h0.269q0.27,0.809.539,1.616h0.269l0.27,1.347a5.536,5.536,0,0,1,1.077,2.424h-3.232q-0.538-1.481-1.078-2.963H150.6l-2.694-6.464H134.977q-0.539,1.482-1.078,2.963H133.63v0.539h-0.269v0.538h-0.27V141.4h-0.269v0.539a16.706,16.706,0,0,0-1.886,4.04H127.7l1.077-2.963h0.27V142.48h0.269v-0.539h0.269l0.809-2.424h0.269v-0.539h0.269V138.17h0.27v-0.538h0.269v-0.539h0.269q0.27-.808.539-1.616h0.269l0.809-2.424h0.269v-0.539H133.9v-0.808h0.27v-0.538h0.269v-0.539h0.269q0.27-.808.539-1.616h0.269l0.809-2.424h0.269V126.05h0.269v-0.808h0.27V124.7H137.4q0.135-.54.269-1.078h0.27q0.135-.539.269-1.077h0.27v-0.808h0.269V121.2h0.269v-0.539h0.27Zm29.9,28.28h-3.232V117.97a9.412,9.412,0,0,1,2.963-.269c0.722,1.978.269,6.344,0.269,8.888v19.392Zm18.048-12.928v12.928h-3.232V117.97c2.1-.775,6.015-0.284,8.619-0.269v0.269h2.155a15.153,15.153,0,0,1,3.771,1.616l0.808,1.077h0.27V121.2l0.538,0.269v0.539h0.27v0.539h0.269a13.878,13.878,0,0,1,.269,4.848h-0.269v0.808H201.51v0.539h-0.27v0.538l-1.616,1.347c-0.09.179-.179,0.359-0.269,0.539h-0.539c-0.09.179-.179,0.359-0.269,0.538-0.488.316-.6,0-1.078,0.539h0.27a10.8,10.8,0,0,0,1.346,1.347v0.538l0.809,0.539v0.539l0.538,0.269,0.27,0.808h0.269v0.539l0.539,0.269q0.135,0.539.269,1.077l0.539,0.27v0.538l0.539,0.27v0.538h0.269q0.135,0.405.269,0.808l0.539,0.27V141.4l0.539,0.27v0.538l0.538,0.27v0.538l0.539,0.27v0.539l0.539,0.269v0.539l0.539,0.269v0.539a2.934,2.934,0,0,1,.538.538H203.4q-0.133-.4-0.269-0.808l-0.539-.269q-0.135-.538-0.269-1.077l-0.539-.27v-0.539l-0.539-.269V142.21l-0.538-.269-0.27-1.077-0.538-.27v-0.538l-0.539-.27v-0.538l-0.539-.27q-0.135-.538-0.269-1.077l-0.539-.269v-0.539l-0.808-.539v-0.538l-0.808-.539v-0.539l-1.886-1.616C193.075,132.681,190.2,133.02,188.311,133.053ZM227.369,117.7h2.155l1.077,2.962h0.269V121.2h0.27v0.539h0.269q0.405,1.212.808,2.424h0.27V124.7h0.269v0.808h0.269v0.538h0.27v0.539h0.269q0.27,0.807.539,1.616h0.269q0.4,1.212.808,2.424h0.27v0.539h0.269v0.808h0.269v0.538h0.27v0.539h0.269l0.539,1.616h0.269q0.4,1.212.808,2.424h0.27v0.539h0.269v0.808h0.269v0.538h0.27q0.135,0.538.269,1.078h0.269l0.27,1.077H240.3v0.808h0.27v0.539h0.269v0.538h0.269q0.538,1.482,1.078,2.963h-3.233q-0.268-.807-0.538-1.616h-0.27v-0.808h-0.269v-0.539h-0.269q-0.27-.807-0.539-1.616H236.8v-0.808h-0.269v-0.538h-0.269v-0.539h-0.27l-1.077-2.963h-12.93l-2.154,5.118h-0.27q-0.135.674-.269,1.346h-0.27v0.539a5.787,5.787,0,0,0-1.077,2.424h-3.5v-0.269c0.525-.483.229-0.512,0.539-1.077h0.269V144.1h0.27v-0.539h0.269v-0.539h0.269V142.21h0.27v-0.538h0.269q0.27-.808.539-1.616H217.4l0.27-1.347h0.269V138.17h0.269q0.27-.807.539-1.616h0.269l0.809-2.424H220.1v-0.538h0.269v-0.808h0.27v-0.539H220.9v-0.539h0.269q0.27-.807.539-1.616h0.269v-0.808h0.27v-0.538h0.269v-0.539h0.27q0.268-.809.538-1.616h0.27v-0.808h0.269v-0.539h0.269q0.27-.807.539-1.616h0.269v-0.808h0.27v-0.539h0.269q0.27-.807.539-1.616h0.269v-0.538h0.27v-0.808h0.269Q227.1,118.509,227.369,117.7Zm29.9,25.587h13.468v2.693h-16.7V117.97A9.409,9.409,0,0,1,257,117.7c0.722,1.977.269,5.609,0.269,8.08v17.507Zm-68.957-22.625v9.7c2.8,0.05,5.615-.006,7.542-0.808h0.808l0.27-.539h0.538v-0.269l0.539-.27c0.4-.522-0.27-0.271.539-0.808,0.1-.979.637-2.492,0.269-3.771h-0.269v-0.808c-0.813-.531-0.144-0.3-0.539-0.808l-0.539-.269v-0.269h-0.538v-0.27l-1.078-.269v-0.269C194.083,120.169,190.576,120.657,188.311,120.663Zm39.866,2.155q-0.538,1.482-1.078,2.963H226.83v0.539h-0.269v0.808h-0.27v0.538h-0.269q-0.27.809-.539,1.616h-0.269v0.808h-0.27v0.539h-0.269l-1.347,3.232h10.236v-0.269c-0.524-.483-0.229-0.511-0.539-1.078h-0.269v-0.538h-0.269v-0.539h-0.27v-0.808h-0.269V130.09h-0.269q-0.27-.807-0.539-1.616h-0.27q-0.4-1.212-.808-2.424h-0.269v-0.538h-0.269V124.7h-0.27C228.852,123.89,228.9,123.29,228.177,122.818Zm-87,.269-2.155,5.118h-0.269v0.808h-0.269l-0.27,1.077H137.94v0.539h-0.27v0.539H137.4v0.538h-0.269v0.808h-0.27v0.539h-0.269c-0.09.269-.18,0.539-0.269,0.808h10.235v-0.269c-0.8-.725-0.825-1.979-1.346-2.963h-0.27q-0.135-.538-0.269-1.077h-0.269v-0.808h-0.27v-0.539h-0.269q-0.27-.809-0.539-1.616h-0.269V126.05h-0.27v-0.808h-0.269a10.486,10.486,0,0,1-.808-2.155h-0.539Zm-129.564,6.2v5.387h33.4v-5.387h-33.4Z"/>
  </g>
</svg>
